<?xml version="1.0" encoding="UTF-8"?> <!-- Generator: Adobe Illustrator 25.0.1, SVG Export Plug-In . SVG Version: 6.00 Build 0) --> <svg xmlns="http://www.w3.org/2000/svg" xmlns:xlink="http://www.w3.org/1999/xlink" version="1.1" id="Layer_1" x="0px" y="0px" viewBox="0 0 30 30" style="enable-background:new 0 0 30 30;" xml:space="preserve"> <style type="text/css"> .st0{fill:#FFFFFF;} </style> <g id="Layer_2_1_"> <g id="Layer_1-2"> <path class="st0" d="M0,21h19.5l0,0v1.2c0,4.3-3.5,7.8-7.8,7.8H0l0,0V21L0,21z"></path> <path class="st0" d="M0,19.5V0h9v13.1c0,3.5-2.9,6.3-6.3,6.3l0,0L0,19.5L0,19.5z"></path> <path class="st0" d="M30,9H10.5l0,0V7.8C10.5,3.5,14,0,18.3,0l0,0H30l0,0V9L30,9z"></path> <path class="st0" d="M21,30V18.3c0-4.3,3.5-7.8,7.8-7.8H30l0,0V30l0,0H21L21,30z"></path> </g> </g> </svg> 